# xmcd
#
# Track frame offsets:
#	150
#	13029
#	27819
#	39789
#	56344
#	70188
#	80520
#	101177
#	112106
#	122979
#	139040
#	150286
#
# Disc length: 2238 seconds
#
# Revision: 1
# Processed by: cddbd v1.5.2PL0 Copyright (c) Steve Scherf et al.
# Submitted via: audiograbber 1.83.01
#
DISCID=9408bc0c
DTITLE=Die Aschtign (Blasmusikanten) - Echt Aschtig
DYEAR=2012
DGENRE=Blasmusik
TTITLE0=Mein bester Freund die Musik
TTITLE1=Wir Musikanten
TTITLE2=Rimballcello Boogie
TTITLE3=Zaubermelodie
TTITLE4=60er Marsch
TTITLE5=Viller Spatzen Walzer
TTITLE6=Alte Kameraden (Swing)
TTITLE7=Mein verträumtes Flügelhorn
TTITLE8=Maxglaner Zigeunermarsch
TTITLE9=Auf der Vogelwiese
TTITLE10=Kurier-Polka
TTITLE11=Einsamer Hirte
EXTD=
EXTT0=
EXTT1=
EXTT2=
EXTT3=
EXTT4=
EXTT5=
EXTT6=
EXTT7=
EXTT8=
EXTT9=
EXTT10=
EXTT11=
PLAYORDER=
